# Blender v2.92.0 OBJ File: 'many_mats_box.blend'
# www.blender.org
mtllib many_mats_box.mtl
g Room_Cube.001
v -1.000000 -1.000000 1.000000
v -1.000000 1.000000 1.000000
v -1.000000 -1.000000 -1.000000
v -1.000000 1.000000 -1.000000
v 1.000000 -1.000000 1.000000
v 1.000000 1.000000 1.000000
v 1.000000 -1.000000 -1.000000
v 1.000000 1.000000 -1.000000
vn 1.0000 0.0000 0.0000
vn 0.0000 0.0000 1.0000
vn -1.0000 0.0000 0.0000
vn 0.0000 1.0000 0.0000
vn 0.0000 -1.0000 0.0000
usemtl Room
s off
f 3//1 2//1 1//1
f 7//2 4//2 3//2
f 5//3 8//3 7//3
f 1//4 7//4 3//4
f 6//5 4//5 8//5
f 3//1 4//1 2//1
f 7//2 8//2 4//2
f 5//3 6//3 8//3
f 1//4 5//4 7//4
f 6//5 2//5 4//5
g Box3_Cube.002
v 0.187791 -0.998883 0.786706
v 0.187791 -0.665956 0.786706
v 0.086750 -0.998883 0.469482
v 0.086750 -0.665956 0.469482
v 0.505015 -0.998883 0.685665
v 0.505015 -0.665956 0.685665
v 0.403974 -0.998883 0.368441
v 0.403974 -0.665956 0.368441
vn -0.9528 0.0000 0.3035
vn -0.3035 0.0000 -0.9528
vn 0.9528 0.0000 -0.3035
vn 0.3035 0.0000 0.9528
vn 0.0000 -1.0000 0.0000
vn 0.0000 1.0000 0.0000
usemtl Box3
s off
f 10//6 11//6 9//6
f 12//7 15//7 11//7
f 16//8 13//8 15//8
f 14//9 9//9 13//9
f 15//10 9//10 11//10
f 12//11 14//11 16//11
f 10//6 12//6 11//6
f 12//7 16//7 15//7
f 16//8 14//8 13//8
f 14//9 10//9 9//9
f 15//10 13//10 9//10
f 12//11 10//11 14//11
g Box4_Cube.003
v 0.662977 -1.001359 0.216551
v 0.662977 -0.472105 0.216551
v 0.190331 -1.001359 -0.021599
v 0.190331 -0.472105 -0.021599
v 0.901126 -1.001359 -0.256095
v 0.901126 -0.472105 -0.256095
v 0.428480 -1.001359 -0.494245
v 0.428480 -0.472105 -0.494245
vn -0.4500 0.0000 0.8930
vn -0.8930 0.0000 -0.4500
vn 0.4500 0.0000 -0.8930
vn 0.8930 0.0000 0.4500
vn 0.0000 -1.0000 0.0000
vn 0.0000 1.0000 0.0000
usemtl Box4
s off
f 18//12 19//12 17//12
f 20//13 23//13 19//13
f 24//14 21//14 23//14
f 22//15 17//15 21//15
f 23//16 17//16 19//16
f 20//17 22//17 24//17
f 18//12 20//12 19//12
f 20//13 24//13 23//13
f 24//14 22//14 21//14
f 22//15 18//15 17//15
f 23//16 21//16 17//16
f 20//17 18//17 22//17
g Box2_Cube.004
v -0.015322 -1.008803 -0.211782
v -0.015322 0.225703 -0.211782
v -0.536649 -1.008803 -0.120525
v -0.536649 0.225703 -0.120525
v -0.106579 -1.008803 -0.733109
v -0.106579 0.225703 -0.733109
v -0.627906 -1.008803 -0.641852
v -0.627906 0.225703 -0.641852
vn -0.1724 0.0000 -0.9850
vn 0.9850 0.0000 -0.1724
vn 0.1724 0.0000 0.9850
vn -0.9850 0.0000 0.1724
vn 0.0000 1.0000 0.0000
vn 0.0000 -1.0000 0.0000
usemtl Box2
s off
f 27//18 26//18 25//18
f 31//19 28//19 27//19
f 29//20 32//20 31//20
f 25//21 30//21 29//21
f 25//22 31//22 27//22
f 30//23 28//23 32//23
f 27//18 28//18 26//18
f 31//19 32//19 28//19
f 29//20 30//20 32//20
f 25//21 26//21 30//21
f 25//22 29//22 31//22
f 30//23 26//23 28//23
g Box1_Cube.005
v -0.178616 -1.001359 0.588649
v -0.178616 -0.472105 0.588649
v -0.641365 -1.001359 0.845502
v -0.641365 -0.472105 0.845502
v -0.435468 -1.001359 0.125901
v -0.435468 -0.472105 0.125901
v -0.898217 -1.001359 0.382753
v -0.898217 -0.472105 0.382753
vn 0.4853 0.0000 0.8743
vn -0.8743 0.0000 0.4853
vn -0.4853 0.0000 -0.8743
vn 0.8743 0.0000 -0.4853
vn 0.0000 -1.0000 0.0000
vn 0.0000 1.0000 0.0000
usemtl Box1
s off
f 34//24 35//24 33//24
f 36//25 39//25 35//25
f 40//26 37//26 39//26
f 38//27 33//27 37//27
f 39//28 33//28 35//28
f 36//29 38//29 40//29
f 34//24 36//24 35//24
f 36//25 40//25 39//25
f 40//26 38//26 37//26
f 38//27 34//27 33//27
f 39//28 37//28 33//28
f 36//29 34//29 38//29
g Light_Plane
v 0.300000 0.984447 0.300000
v -0.300000 0.984448 0.300000
v 0.300000 0.984447 -0.300000
v -0.300000 0.984448 -0.300000
vn -0.0000 -1.0000 0.0000
usemtl Light
s off
f 42//30 43//30 41//30
f 42//30 44//30 43//30
